<?xml version="1.0" encoding="UTF-8"?>
<!DOCTYPE svg PUBLIC "-//W3C//DTD SVG 1.1//EN" "http://www.w3.org/Graphics/SVG/1.1/DTD/svg11.dtd">
<svg xmlns="http://www.w3.org/2000/svg" version="1.1" width="2147px" height="1121px" style="shape-rendering:geometricPrecision; text-rendering:geometricPrecision; image-rendering:optimizeQuality; fill-rule:evenodd; clip-rule:evenodd" xmlns:xlink="http://www.w3.org/1999/xlink">
<g><path style="opacity:0.954" fill="#000000" d="M 449.5,598.5 C 462.5,598.5 475.5,598.5 488.5,598.5C 488.5,659.5 488.5,720.5 488.5,781.5C 475.5,781.5 462.5,781.5 449.5,781.5C 449.5,720.5 449.5,659.5 449.5,598.5 Z"/></g>
<g><path style="opacity:0.965" fill="#000000" d="M 522.5,598.5 C 550.188,598.124 577.855,598.624 605.5,600C 642.166,603.004 663.999,622.504 671,658.5C 676.053,686.183 673.719,713.183 664,739.5C 655.492,757.672 641.658,769.839 622.5,776C 614.364,778.634 606.03,780.301 597.5,781C 572.502,781.5 547.502,781.667 522.5,781.5C 522.5,720.5 522.5,659.5 522.5,598.5 Z M 561.5,629.5 C 574.209,629.152 586.875,629.652 599.5,631C 616.446,633.946 626.946,643.779 631,660.5C 634.601,680.249 634.268,699.915 630,719.5C 624.674,737.155 612.84,747.321 594.5,750C 583.54,751.285 572.54,751.785 561.5,751.5C 561.5,710.833 561.5,670.167 561.5,629.5 Z"/></g>
<g><path style="opacity:0.958" fill="#000000" d="M 701.5,598.5 C 714.5,598.5 727.5,598.5 740.5,598.5C 740.333,625.835 740.5,653.169 741,680.5C 761.5,653.333 782,626.167 802.5,599C 817.178,598.167 831.845,598.334 846.5,599.5C 823.954,628.091 801.287,656.591 778.5,685C 803.076,716.82 827.409,748.82 851.5,781C 836.167,781.667 820.833,781.667 805.5,781C 783.634,752.1 762.134,722.934 741,693.5C 740.5,722.831 740.333,752.165 740.5,781.5C 727.5,781.5 714.5,781.5 701.5,781.5C 701.5,720.5 701.5,659.5 701.5,598.5 Z"/></g>
<g><path style="opacity:0.965" fill="#000000" d="M 990.5,598.5 C 1018.19,598.124 1045.85,598.624 1073.5,600C 1110.17,603.004 1132,622.504 1139,658.5C 1144.05,686.183 1141.72,713.183 1132,739.5C 1123.49,757.672 1109.66,769.839 1090.5,776C 1082.36,778.634 1074.03,780.301 1065.5,781C 1040.5,781.5 1015.5,781.667 990.5,781.5C 990.5,720.5 990.5,659.5 990.5,598.5 Z M 1029.5,629.5 C 1042.21,629.152 1054.88,629.652 1067.5,631C 1084.45,633.946 1094.95,643.779 1099,660.5C 1102.6,680.249 1102.27,699.915 1098,719.5C 1092.67,737.155 1080.84,747.321 1062.5,750C 1051.54,751.285 1040.54,751.785 1029.5,751.5C 1029.5,710.833 1029.5,670.167 1029.5,629.5 Z"/></g>
<g><path style="opacity:0.965" fill="#000000" d="M 1169.5,598.5 C 1207.5,598.5 1245.5,598.5 1283.5,598.5C 1283.5,608.833 1283.5,619.167 1283.5,629.5C 1258.5,629.5 1233.5,629.5 1208.5,629.5C 1208.5,644.167 1208.5,658.833 1208.5,673.5C 1230.5,673.5 1252.5,673.5 1274.5,673.5C 1274.5,683.167 1274.5,692.833 1274.5,702.5C 1252.5,702.5 1230.5,702.5 1208.5,702.5C 1208.5,718.833 1208.5,735.167 1208.5,751.5C 1233.5,751.5 1258.5,751.5 1283.5,751.5C 1283.5,761.5 1283.5,771.5 1283.5,781.5C 1245.5,781.5 1207.5,781.5 1169.5,781.5C 1169.5,720.5 1169.5,659.5 1169.5,598.5 Z"/></g>
<g><path style="opacity:0.965" fill="#000000" d="M 1311.5,598.5 C 1324.5,598.5 1337.5,598.5 1350.5,598.5C 1350.5,649.167 1350.5,699.833 1350.5,750.5C 1374.17,750.5 1397.83,750.5 1421.5,750.5C 1421.5,760.833 1421.5,771.167 1421.5,781.5C 1384.83,781.5 1348.17,781.5 1311.5,781.5C 1311.5,720.5 1311.5,659.5 1311.5,598.5 Z"/></g>
<g><path style="opacity:0.969" fill="#000000" d="M 1401.5,598.5 C 1447.83,598.5 1494.17,598.5 1540.5,598.5C 1540.5,609.167 1540.5,619.833 1540.5,630.5C 1523.83,630.5 1507.17,630.5 1490.5,630.5C 1490.5,680.833 1490.5,731.167 1490.5,781.5C 1477.83,781.5 1465.17,781.5 1452.5,781.5C 1452.5,731.167 1452.5,680.833 1452.5,630.5C 1435.5,630.5 1418.5,630.5 1401.5,630.5C 1401.5,619.833 1401.5,609.167 1401.5,598.5 Z"/></g>
<g><path style="opacity:0.969" fill="#000000" d="M 1587.5,598.5 C 1603.83,598.5 1620.17,598.5 1636.5,598.5C 1656.37,659.438 1676.03,720.438 1695.5,781.5C 1682.5,781.5 1669.5,781.5 1656.5,781.5C 1652.47,767.234 1648.13,753.067 1643.5,739C 1621.5,738.5 1599.5,738.333 1577.5,738.5C 1573.87,752.881 1569.54,767.047 1564.5,781C 1551.83,781.667 1539.17,781.667 1526.5,781C 1547.14,720.255 1567.47,659.421 1587.5,598.5 Z M 1610.5,633.5 C 1618.56,658.219 1626.56,683.053 1634.5,708C 1618.83,708.667 1603.17,708.667 1587.5,708C 1595.71,683.332 1603.38,658.499 1610.5,633.5 Z"/></g>
<g><path style="opacity:0.96" fill="#000000" d="M 870.5,694.5 C 898.5,694.5 926.5,694.5 954.5,694.5C 954.5,703.5 954.5,712.5 954.5,721.5C 926.5,721.5 898.5,721.5 870.5,721.5C 870.5,712.5 870.5,703.5 870.5,694.5 Z"/></g>
</svg>
