<?xml version="1.0" encoding="UTF-8"?>
<!DOCTYPE svg PUBLIC "-//W3C//DTD SVG 1.1//EN" "http://www.w3.org/Graphics/SVG/1.1/DTD/svg11.dtd">
<svg xmlns="http://www.w3.org/2000/svg" version="1.1" width="2147px" height="1121px" style="shape-rendering:geometricPrecision; text-rendering:geometricPrecision; image-rendering:optimizeQuality; fill-rule:evenodd; clip-rule:evenodd" xmlns:xlink="http://www.w3.org/1999/xlink">
<g><path style="opacity:0.954" fill="#fefffe" d="M 449.5,589.5 C 462.5,589.5 475.5,589.5 488.5,589.5C 488.5,650.5 488.5,711.5 488.5,772.5C 475.5,772.5 462.5,772.5 449.5,772.5C 449.5,711.5 449.5,650.5 449.5,589.5 Z"/></g>
<g><path style="opacity:0.965" fill="#fefffe" d="M 522.5,589.5 C 550.188,589.124 577.855,589.624 605.5,591C 642.166,594.004 663.999,613.504 671,649.5C 676.053,677.183 673.719,704.183 664,730.5C 655.492,748.672 641.658,760.839 622.5,767C 614.364,769.634 606.03,771.301 597.5,772C 572.502,772.5 547.502,772.667 522.5,772.5C 522.5,711.5 522.5,650.5 522.5,589.5 Z M 561.5,620.5 C 574.209,620.152 586.875,620.652 599.5,622C 616.446,624.946 626.946,634.779 631,651.5C 634.601,671.249 634.268,690.915 630,710.5C 624.674,728.155 612.84,738.321 594.5,741C 583.54,742.285 572.54,742.785 561.5,742.5C 561.5,701.833 561.5,661.167 561.5,620.5 Z"/></g>
<g><path style="opacity:0.958" fill="#fefffe" d="M 701.5,589.5 C 714.5,589.5 727.5,589.5 740.5,589.5C 740.333,616.835 740.5,644.169 741,671.5C 761.5,644.333 782,617.167 802.5,590C 817.178,589.167 831.845,589.334 846.5,590.5C 823.954,619.091 801.287,647.591 778.5,676C 803.076,707.82 827.409,739.82 851.5,772C 836.167,772.667 820.833,772.667 805.5,772C 783.634,743.1 762.134,713.934 741,684.5C 740.5,713.831 740.333,743.165 740.5,772.5C 727.5,772.5 714.5,772.5 701.5,772.5C 701.5,711.5 701.5,650.5 701.5,589.5 Z"/></g>
<g><path style="opacity:0.965" fill="#fefffe" d="M 990.5,589.5 C 1018.19,589.124 1045.85,589.624 1073.5,591C 1110.17,594.004 1132,613.504 1139,649.5C 1144.05,677.183 1141.72,704.183 1132,730.5C 1123.49,748.672 1109.66,760.839 1090.5,767C 1082.36,769.634 1074.03,771.301 1065.5,772C 1040.5,772.5 1015.5,772.667 990.5,772.5C 990.5,711.5 990.5,650.5 990.5,589.5 Z M 1029.5,620.5 C 1042.21,620.152 1054.88,620.652 1067.5,622C 1084.45,624.946 1094.95,634.779 1099,651.5C 1102.6,671.249 1102.27,690.915 1098,710.5C 1092.67,728.155 1080.84,738.321 1062.5,741C 1051.54,742.285 1040.54,742.785 1029.5,742.5C 1029.5,701.833 1029.5,661.167 1029.5,620.5 Z"/></g>
<g><path style="opacity:0.965" fill="#fefffe" d="M 1169.5,589.5 C 1207.5,589.5 1245.5,589.5 1283.5,589.5C 1283.5,599.833 1283.5,610.167 1283.5,620.5C 1258.5,620.5 1233.5,620.5 1208.5,620.5C 1208.5,635.167 1208.5,649.833 1208.5,664.5C 1230.5,664.5 1252.5,664.5 1274.5,664.5C 1274.5,674.167 1274.5,683.833 1274.5,693.5C 1252.5,693.5 1230.5,693.5 1208.5,693.5C 1208.5,709.833 1208.5,726.167 1208.5,742.5C 1233.5,742.5 1258.5,742.5 1283.5,742.5C 1283.5,752.5 1283.5,762.5 1283.5,772.5C 1245.5,772.5 1207.5,772.5 1169.5,772.5C 1169.5,711.5 1169.5,650.5 1169.5,589.5 Z"/></g>
<g><path style="opacity:0.965" fill="#fefffe" d="M 1311.5,589.5 C 1324.5,589.5 1337.5,589.5 1350.5,589.5C 1350.5,640.167 1350.5,690.833 1350.5,741.5C 1374.17,741.5 1397.83,741.5 1421.5,741.5C 1421.5,751.833 1421.5,762.167 1421.5,772.5C 1384.83,772.5 1348.17,772.5 1311.5,772.5C 1311.5,711.5 1311.5,650.5 1311.5,589.5 Z"/></g>
<g><path style="opacity:0.969" fill="#fefffe" d="M 1402.5,589.5 C 1448.83,589.5 1495.17,589.5 1541.5,589.5C 1541.5,600.167 1541.5,610.833 1541.5,621.5C 1524.83,621.5 1508.17,621.5 1491.5,621.5C 1491.5,671.833 1491.5,722.167 1491.5,772.5C 1478.83,772.5 1466.17,772.5 1453.5,772.5C 1453.5,722.167 1453.5,671.833 1453.5,621.5C 1436.5,621.5 1419.5,621.5 1402.5,621.5C 1402.5,610.833 1402.5,600.167 1402.5,589.5 Z"/></g>
<g><path style="opacity:0.969" fill="#fefffe" d="M 1587.5,589.5 C 1603.83,589.5 1620.17,589.5 1636.5,589.5C 1656.37,650.438 1676.03,711.438 1695.5,772.5C 1682.5,772.5 1669.5,772.5 1656.5,772.5C 1652.47,758.234 1648.13,744.067 1643.5,730C 1621.5,729.5 1599.5,729.333 1577.5,729.5C 1573.87,743.881 1569.54,758.047 1564.5,772C 1551.83,772.667 1539.17,772.667 1526.5,772C 1547.14,711.255 1567.47,650.421 1587.5,589.5 Z M 1610.5,624.5 C 1618.56,649.219 1626.56,674.053 1634.5,699C 1618.83,699.667 1603.17,699.667 1587.5,699C 1595.71,674.332 1603.38,649.499 1610.5,624.5 Z"/></g>
<g><path style="opacity:0.96" fill="#fefffe" d="M 870.5,685.5 C 898.5,685.5 926.5,685.5 954.5,685.5C 954.5,694.5 954.5,703.5 954.5,712.5C 926.5,712.5 898.5,712.5 870.5,712.5C 870.5,703.5 870.5,694.5 870.5,685.5 Z"/></g>
</svg>
